# xmcd
#
# Track frame offsets: 
#        150
#        21475
#        36000
#        44475
#        54625
#        72475
#        86800
#        98125
#        106050
#        116887
#        132550
#        146750
#        161550
#        171175
#        184800
#        197500
#        216350
#        231700
#        249125
#        258000
#        268175
#        293975
#        310750
#
# Disc length: 4314 seconds
#
# Revision: 4
# Processed by: cddbd v1.5.2PL0 Copyright (c) Steve Scherf et al.
# Submitted via: ExactAudioCopy v0.99pb4
#
DISCID=6310d817
DTITLE=Marty Robbins - Under Western Skies - Disc 1
DYEAR=1900
DGENRE=Country
TTITLE0=El Paso (Long Version-Mono) - 1959
TTITLE1=Cool Water - 1959
TTITLE2=In The Valley - 1959
TTITLE3=Running Gun - 1959
TTITLE4=Big Iron - 1959
TTITLE5=The Master's Call - 1959
TTITLE6=The Little Green Valley - 1959
TTITLE7=A Hundred And Sixty Acres - 1959
TTITLE8=Billy The Kid - 1959
TTITLE9=The Strawberry Roan - 1959
TTITLE10=They're Hanging Me Tonight - 1959
TTITLE11=Utah Carol - 1959
TTITLE12=Saddle Tramp - 1960
TTITLE13=She Was Young And She Was Pretty - 1960
TTITLE14=Streets Of Laredo - 1960
TTITLE15=Little Joe, The Wrangler - 1960
TTITLE16=I've Got No Use For The Woman - 1960
TTITLE17=Billy Venero - 1984
TTITLE18=This Peaceful Sod - 1960
TTITLE19=Five Brothers - 1960
TTITLE20=San Angelo - 1960
TTITLE21=Ballad Of The Alamo (Thirteen Days Of Glory) - 1960
TTITLE22=The Hanging Tree - 1958
EXTD=
EXTT0=
EXTT1=
EXTT2=
EXTT3=
EXTT4=
EXTT5=
EXTT6=
EXTT7=
EXTT8=
EXTT9=
EXTT10=
EXTT11=
EXTT12=
EXTT13=
EXTT14=
EXTT15=
EXTT16=
EXTT17=
EXTT18=
EXTT19=
EXTT20=
EXTT21=
EXTT22=
PLAYORDER=
